<svg width="32" height="32" viewBox="0 0 32 32" fill="none" xmlns="http://www.w3.org/2000/svg"><path d="M32 12V22C32 24.2 30.2 26 28 26H20V27C20 28.7 21.3 30 23 30H25C25.6 30 26 30.4 26 31C26 31.6 25.6 32 25 32H11C10.4 32 10 31.6 10 31C10 30.4 10.4 30 11 30H13C14.7 30 16 28.7 16 27V26H8V24H28C29.1 24 30 23.1 30 22V12C30 10.9 29.1 10 28 10H12V8H28C30.2 8 32 9.8 32 12ZM10 1V13C10 13.6 9.6 14 9 14H6V31C6 31.6 5.6 32 5 32C4.4 32 4 31.6 4 31V14H1C0.4 14 0 13.6 0 13V1C0 0.4 0.4 0 1 0H9C9.6 0 10 0.4 10 1ZM2 2V4H8V2H2ZM8 12V6H6V8C6 8.6 5.6 9 5 9C4.4 9 4 8.6 4 8V6H2V12H8Z" fill="currentColor"/></svg>