<svg width="32" height="32" viewBox="0 0 32 32" fill="none" xmlns="http://www.w3.org/2000/svg"><path d="M6.1 25.3C7.9 26.4 10.2 26.2 11.7 24.7L18.4 18H22.6C23.1 18 23.6 17.8 24 17.4L29.7 11.7C30 11.4 30.1 11 29.9 10.6C28 5.8 24.2 2 19.4 0.1C19-0.1 18.6 0 18.3 0.3L12.6 6C12.2 6.4 12 6.9 12 7.4V11.6L5.3 18.3C3.8 19.8 3.6 22.1 4.7 23.9L3.1 25.5C1.6 27 1.6 29.4 3.1 30.9C3.8 31.6 4.8 32 5.8 32H8.4C10.2 32 12 31.7 13.8 31.1L15.5 30.5C18.4 29.5 21.5 29.8 24.2 31.1L25.6 31.8C25.7 32 25.8 32 26 32C26.6 32 27 31.6 27 31C27 30.6 26.8 30.3 26.4 30.1L25 29.4C21.8 27.8 18.2 27.6 14.8 28.7L13.1 29.3C11.6 29.7 10 30 8.4 30H5.8C4.8 30 4 29.2 4 28.2C4 27.7 4.2 27.2 4.5 26.9L6.1 25.3Z" fill="currentColor"/></svg>