<svg width="32" height="32" viewBox="0 0 32 32" fill="none" xmlns="http://www.w3.org/2000/svg"><path d="M28 21.7V20C27.9 16.1 26.2 12.5 23.2 10C23.4 10 23.6 9.9 23.7 9.7C25.2 8.2 25.2 5.8 23.7 4.3C23.5 4.1 23.3 4 23 4H18C16.2 4 14.5 4.5 12.9 5.4L13.9 3.5V3.4C14 3.3 14 3.2 14 3.1V2.9C14 2.8 14 2.8 14 2.7V2.5C13.9 2.4 13.9 2.4 13.8 2.3C12.7 0.9 11 0 9.1 0H9C8.8 0 8.7 0 8.6 0L8.5 0.1C8.4 0.1 8.4 0.2 8.4 0.2L8.2 0.4L8.1 0.5L4.5 7.8C4.2 8.4 4 9.2 4 9.9C4.1 13.5 4.8 17 6.1 20.3L6.2 20.5C7.6 26.8 17.8 32 23 32C24.2 32.1 25.4 31.6 26.3 30.8C28.1 29 28 25.8 28 21.7Z" fill="currentColor"/></svg>