<svg width="32" height="32" viewBox="0 0 32 32" fill="none" xmlns="http://www.w3.org/2000/svg"><path d="M1 4C1 2.3 2.3 1 4 1H28C29.7 1 31 2.3 31 4V28C31 29.7 29.7 31 28 31H4C2.3 31 1 29.7 1 28V4Z" fill="#FAFBFD"/><path d="M31 4V28C31 29.7 29.7 31 28 31H4C2.3 31 1 29.7 1 28V27H6.5C6.9 27 7.2 26.8 7.4 26.5L16.5 8.3L24.9 25H17.5V22C18.6 21.4 19.1 20.1 18.5 19C17.9 17.9 16.6 17.4 15.5 18C14.4 18.6 13.9 19.9 14.5 21C14.7 21.4 15.1 21.8 15.5 22V26C15.5 26.3 15.6 26.5 15.8 26.7C16 26.9 16.2 27 16.5 27H26.5C27.1 27 27.5 26.5 27.5 26C27.5 25.8 27.5 25.7 27.4 25.6L17.4 5.6C17.1 5.1 16.5 4.9 16.1 5.2C15.9 5.3 15.8 5.4 15.7 5.6L5.9 25H1V4C1 2.3 2.3 1 4 1H28C29.7 1 31 2.3 31 4Z" fill="currentColor"/></svg>