<svg xmlns="http://www.w3.org/2000/svg" width="32" height="32" viewBox="0 0 32 32"><g id="ico-mr-32"><path d="M30,14A14,14,0,0,0,2,14V26a2,2,0,0,0,2,2H9v3a1,1,0,0,0,1,1H22a1,1,0,0,0,1-1V28h5a2,2,0,0,0,2-2V14.5s0-.07,0-.11S30,14.13,30,14ZM16,2A12,12,0,0,1,28,14a11.88,11.88,0,0,1-3.94,8.88L22.17,19.1a8,8,0,1,0-12.34,0L7.94,22.88A11.88,11.88,0,0,1,4,14,12,12,0,0,1,16,2ZM11.54,18A5.94,5.94,0,0,1,10,14a6,6,0,0,1,12,0,5.94,5.94,0,0,1-1.54,4ZM4,21.15a13.75,13.75,0,0,0,3,3.56L6.38,26H4ZM21,30H11V28H21Zm2-4H8.62l3-6h8.76l3,6Zm5,0H25.62L25,24.71a13.75,13.75,0,0,0,3-3.56Z"></path></g></svg>