<svg width="32" height="32" viewBox="0 0 32 32" fill="none" xmlns="http://www.w3.org/2000/svg"><path d="M30.7 16.7L26.7 20.7C26.3 21.1 25.7 21.1 25.3 20.7C24.9 20.3 24.9 19.7 25.3 19.3L27.6 17H17V27.6L19.3 25.3C19.7 24.9 20.3 24.9 20.7 25.3C21.1 25.7 21.1 26.3 20.7 26.7L16.7 30.7C16.3 31.1 15.7 31.1 15.3 30.7L11.3 26.7C10.9 26.3 10.9 25.7 11.3 25.3C11.7 24.9 12.3 24.9 12.7 25.3L15 27.6V17H4.4L6.7 19.3C7.1 19.7 7.1 20.3 6.7 20.7C6.3 21.1 5.7 21.1 5.3 20.7L1.3 16.7C0.9 16.3 0.9 15.7 1.3 15.3L5.3 11.3C5.7 10.9 6.3 10.9 6.7 11.3C7.1 11.7 7.1 12.3 6.7 12.7L4.4 15H15V4.4L12.7 6.7C12.3 7.1 11.7 7.1 11.3 6.7C10.9 6.3 10.9 5.7 11.3 5.3L15.3 1.3C15.7 0.9 16.3 0.9 16.7 1.3L20.7 5.3C21.1 5.7 21.1 6.3 20.7 6.7C20.3 7.1 19.7 7.1 19.3 6.7L17 4.4V15H27.6L25.3 12.7C24.9 12.3 24.9 11.7 25.3 11.3C25.7 10.9 26.3 10.9 26.7 11.3L30.7 15.3C31.1 15.7 31.2 16.3 30.7 16.7Z" fill="currentColor"/></svg>