<svg width="32" height="32" viewBox="0 0 32 32" fill="none" xmlns="http://www.w3.org/2000/svg"><path d="M31.7 6.3L25.7 0.3C25.3-0.1 24.7-0.1 24.3 0.3C23.9 0.7 23.9 1.3 24.3 1.7L26.3 3.7L22.7 7.3L20.7 5.3C20.3 4.9 19.7 4.9 19.3 5.3L6.3 18.3C5.9 18.7 5.9 19.3 6.3 19.7L6.6 20L4.3 22.3C3.9 22.7 3.9 23.3 4.3 23.7L5.6 25L0.3 30.3C-0.1 30.7-0.1 31.3 0.3 31.7C0.7 32.1 1.3 32.1 1.7 31.7L7 26.4L8.3 27.7C8.7 28.1 9.3 28.1 9.7 27.7L12 25.4L12.3 25.7C12.7 26.1 13.3 26.1 13.7 25.7L26.7 12.7C27.1 12.3 27.1 11.7 26.7 11.3L24.7 9.3L28.3 5.7L30.3 7.7C30.7 8.1 31.3 8.1 31.7 7.7C32.1 7.3 32.1 6.7 31.7 6.3ZM16.3 20.3L11.7 15.7L20 7.4L24.6 12L16.3 20.3Z" fill="currentColor"/></svg>