<svg width="32" height="32" viewBox="0 0 32 32" fill="none" xmlns="http://www.w3.org/2000/svg"><path d="M28.18 3.27C25.09 0.37 21.44 0.02 20.01 0C19.86-0.02 19.63 0.05 19.47 0.15C18.28 0.89 17.2 1.79 16.26 2.82C15.13 4.06 14.21 5.47 13.53 7.02C12.19 10.18 10.43 12.78 8.31 14.76L7 15.92C6.07 16.72 4.92 17.72 3.3 19.27C2.55 19.99 1.69 20.84 0.95 21.59C-0.11 22.66-0.31 24.31 0.45 25.61C1.1 26.72 1.88 27.76 2.77 28.69C3.84 29.81 5.06 30.77 6.4 31.55C6.92 31.85 7.49 32 8.06 32C8.92 32 9.76 31.67 10.41 31.04L12.22 29.2C13.79 27.56 14.99 26.2 15.95 25.11L17.22 23.69C19.2 21.57 21.81 19.82 24.97 18.47C26.51 17.79 27.92 16.88 29.16 15.75C30.19 14.81 31.09 13.73 31.83 12.54C31.93 12.38 31.98 12.19 31.98 12C31.97 10.78 31.65 6.55 28.16 3.28L28.18 3.27Z" fill="currentColor"/></svg>