<svg width="32" height="32" viewBox="0 0 32 32" fill="none" xmlns="http://www.w3.org/2000/svg"><path d="M32 18.8L28 2.8C27.9 2.3 27.5 2 27 2H5C4.5 2 4.1 2.3 4 2.8L0 18.8V19V28C0 29.1 0.9 30 2 30H30C31.1 30 32 29.1 32 28V19V18.8ZM5.8 4H26.2L29.7 18H2.3L5.8 4ZM30 28H2V20H30V28ZM16 16C20.5 16 24 13.8 24 11C24 8.2 20.5 6 16 6C11.5 6 8 8.2 8 11C8 13.8 11.5 16 16 16ZM16 8C19.5 8 22 9.6 22 11C22 12.4 19.5 14 16 14C12.5 14 10 12.4 10 11C10 9.6 12.5 8 16 8ZM18 11C18 11.6 17.1 12 16 12C14.9 12 14 11.6 14 11C14 10.4 14.9 10 16 10C17.1 10 18 10.4 18 11ZM28 24C28 25.1 27.1 26 26 26C24.9 26 24 25.1 24 24C24 22.9 24.9 22 26 22C27.1 22 28 22.9 28 24Z" fill="currentColor"/></svg>