<svg width="32" height="32" viewBox="0 0 32 32" fill="none" xmlns="http://www.w3.org/2000/svg"><path d="M30 15H28.9C27.5 15 26.1 15.3 24.9 15.9L23.6 16.5C22.8 16.9 21.8 17.1 20.9 17C19.6 16.8 18.2 16.9 16.9 17.2C17 16.9 17 16.5 17 16.2V14.4C17 13.1 17.5 11.8 18.5 10.9L20 9.4L20.7 10.1C21.3 10.7 22 11 22.8 11H24.1C24.9 11 25.7 10.7 26.2 10.1L28 8.4C29.3 7.1 29.3 4.9 28 3.6L26.6 2.2C25.8 1.4 24.8 1 23.8 1H19.3C18.2 1 17.2 1.4 16.5 2.2L7 11.6C5.1 13.5 3.7 15.7 2.9 18.3L1.2 23.2C0.8 24.2 0.9 25.4 1.4 26.4L1.9 27.4C2.4 28.4 3.4 29 4.6 29H4.7C5.9 29 7.1 29.2 8.2 29.5C11 30.5 14 31 17 31C20.5 31 23.9 30.3 27.2 29C27.7 29.1 28 29.5 28 30C28 30.6 28.4 31 29 31C29.6 31 30 30.6 30 30C30 28.3 28.7 27 27 27C26.9 27 26.7 27 26.6 27.1C23.6 28.4 20.3 29 17 29C14.2 29 11.5 28.5 8.9 27.6C7.5 27.2 6.1 27 4.6 27C4.2 27 3.9 26.8 3.7 26.5L3.2 25.5C2.9 25 2.9 24.4 3.1 23.9L4.8 19C5.5 16.8 6.8 14.8 8.4 13.1L17.8 3.7C18.2 3.2 18.7 3 19.2 3H23.7C24.2 3 24.7 3.2 25.1 3.6L26.6 5C27.1 5.6 27.1 6.4 26.6 7L24.9 8.7C24.7 8.9 24.4 9 24.2 9H22.9C22.6 9 22.4 8.9 22.2 8.7L20.8 7.3C20.4 6.9 19.8 6.9 19.4 7.3L17 9.5C15.7 10.8 14.9 12.6 14.9 14.5V16.3C14.9 17.1 14.6 17.9 14 18.4L12.2 20.2C11.8 20.6 11.8 21.2 12.2 21.6C12.6 22 13.2 22 13.6 21.6L15.2 20L15.3 19.9C16.9 19 18.7 18.7 20.5 19H21L21.1 19.1L24.6 20.9C24.7 21 24.9 21 25 21C25.4 21 25.7 20.8 25.9 20.5C26.1 20 26 19.4 25.5 19.2L24.3 18.6L24.6 18.5L25.9 17.9C26.9 17.4 27.9 17.2 29 17.2H30C30.6 17.2 31 16.8 31 16.2C31 15.4 30.6 15 30 15Z" fill="currentColor"/></svg>